<svg version="1.2" baseProfile="tiny-ps" viewBox="0 0 512 512" xmlns="http://www.w3.org/2000/svg"
    preserveAspectRatio="xMidYMid meet" xml:space="preserve">
    <title>Domain Avatar</title>
    <rect fill="#ffe7b3" width="512" height="512"/>
    <path fill="#111110" d="M 487.500,256.000 C 487.500,261.051 486.633,266.097 485.105,271.016 C 483.576,275.936 481.403,280.724 479.075,285.368 C 476.747,290.013 474.287,294.517 472.169,298.999 C 470.051,303.480 468.289,307.947 467.055,312.552 C 465.821,317.156 465.113,321.906 464.707,326.846 C 464.301,331.787 464.179,336.917 463.873,342.104 C 463.567,347.290 463.055,352.523 461.919,357.548 C 460.782,362.572 459.010,367.376 456.485,371.750 C 453.960,376.124 450.686,380.060 446.902,383.557 C 443.119,387.053 438.843,390.113 434.505,392.971 C 430.166,395.830 425.783,398.501 421.708,401.322 C 417.633,404.144 413.874,407.132 410.503,410.503 C 407.132,413.874 404.144,417.633 401.322,421.708 C 398.501,425.783 395.830,430.166 392.971,434.505 C 390.113,438.843 387.053,443.119 383.557,446.902 C 380.060,450.686 376.124,453.960 371.750,456.485 C 367.376,459.010 362.572,460.782 357.548,461.919 C 352.523,463.055 347.290,463.567 342.104,463.873 C 336.917,464.179 331.787,464.301 326.846,464.707 C 321.906,465.113 317.156,465.821 312.552,467.055 C 307.947,468.289 303.480,470.051 298.999,472.169 C 294.517,474.287 290.013,476.747 285.368,479.075 C 280.724,481.403 275.936,483.576 271.016,485.105 C 266.097,486.633 261.051,487.500 256.000,487.500 C 250.949,487.500 245.903,486.633 240.984,485.105 C 236.064,483.576 231.276,481.403 226.632,479.075 C 221.987,476.747 217.483,474.287 213.001,472.169 C 208.520,470.051 204.053,468.289 199.448,467.055 C 194.844,465.821 190.094,465.113 185.154,464.707 C 180.213,464.301 175.083,464.179 169.896,463.873 C 164.710,463.567 159.477,463.055 154.452,461.919 C 149.428,460.782 144.624,459.010 140.250,456.485 C 135.876,453.960 131.940,450.686 128.443,446.902 C 124.947,443.119 121.887,438.843 119.029,434.505 C 116.170,430.166 113.499,425.783 110.678,421.708 C 107.856,417.633 104.868,413.874 101.497,410.503 C 98.126,407.132 94.367,404.144 90.292,401.322 C 86.217,398.501 81.834,395.830 77.495,392.971 C 73.157,390.113 68.881,387.053 65.098,383.557 C 61.314,380.060 58.040,376.124 55.515,371.750 C 52.990,367.376 51.218,362.572 50.081,357.548 C 48.945,352.523 48.433,347.290 48.127,342.104 C 47.821,336.917 47.699,331.787 47.293,326.846 C 46.887,321.906 46.179,317.156 44.945,312.552 C 43.711,307.947 41.949,303.480 39.831,298.999 C 37.713,294.517 35.253,290.013 32.925,285.368 C 30.597,280.724 28.424,275.936 26.895,271.016 C 25.367,266.097 24.500,261.051 24.500,256.000 C 24.500,250.949 25.367,245.903 26.895,240.984 C 28.424,236.064 30.597,231.276 32.925,226.632 C 35.253,221.987 37.713,217.483 39.831,213.001 C 41.949,208.520 43.711,204.053 44.945,199.448 C 46.179,194.844 46.887,190.094 47.293,185.154 C 47.699,180.213 47.821,175.083 48.127,169.896 C 48.433,164.710 48.945,159.477 50.081,154.452 C 51.218,149.428 52.990,144.624 55.515,140.250 C 58.040,135.876 61.314,131.940 65.098,128.443 C 68.881,124.947 73.157,121.887 77.495,119.029 C 81.834,116.170 86.217,113.499 90.292,110.678 C 94.367,107.856 98.126,104.868 101.497,101.497 C 104.868,98.126 107.856,94.367 110.678,90.292 C 113.499,86.217 116.170,81.834 119.029,77.495 C 121.887,73.157 124.947,68.881 128.443,65.098 C 131.940,61.314 135.876,58.040 140.250,55.515 C 144.624,52.990 149.428,51.218 154.452,50.081 C 159.477,48.945 164.710,48.433 169.896,48.127 C 175.083,47.821 180.213,47.699 185.154,47.293 C 190.094,46.887 194.844,46.179 199.448,44.945 C 204.053,43.711 208.520,41.949 213.001,39.831 C 217.483,37.713 221.987,35.253 226.632,32.925 C 231.276,30.597 236.064,28.424 240.984,26.895 C 245.903,25.367 250.949,24.500 256.000,24.500 C 261.051,24.500 266.097,25.367 271.016,26.895 C 275.936,28.424 280.724,30.597 285.368,32.925 C 290.013,35.253 294.517,37.713 298.999,39.831 C 303.480,41.949 307.947,43.711 312.552,44.945 C 317.156,46.179 321.906,46.887 326.846,47.293 C 331.787,47.699 336.917,47.821 342.104,48.127 C 347.290,48.433 352.523,48.945 357.548,50.081 C 362.572,51.218 367.376,52.990 371.750,55.515 C 376.124,58.040 380.060,61.314 383.557,65.098 C 387.053,68.881 390.113,73.157 392.971,77.495 C 395.830,81.834 398.501,86.217 401.322,90.292 C 404.144,94.367 407.132,98.126 410.503,101.497 C 413.874,104.868 417.633,107.856 421.708,110.678 C 425.783,113.499 430.166,116.170 434.505,119.029 C 438.843,121.887 443.119,124.947 446.902,128.443 C 450.686,131.940 453.960,135.876 456.485,140.250 C 459.010,144.624 460.782,149.428 461.919,154.452 C 463.055,159.477 463.567,164.710 463.873,169.896 C 464.179,175.083 464.301,180.213 464.707,185.154 C 465.113,190.094 465.821,194.844 467.055,199.448 C 468.289,204.053 470.051,208.520 472.169,213.001 C 474.287,217.483 476.747,221.987 479.075,226.632 C 481.403,231.276 483.576,236.064 485.105,240.984 C 486.633,245.903 487.500,250.949 487.500,256.000 Z"/>
    <path stroke-linecap="round" fill-rule="evenodd" fill="#ffe7b3" transform="translate(0, -10)" d="m145 281.5v68.1h-31.2v-126.5h28.9l2.6 16.4q5.9-9.5 16.6-14.8 10.8-5.4 23.8-5.4 23.6 0 35.8 13.8 12.3 13.8 12.3 38.7v77.8h-31.2v-70.4q0-15.6-7-23.6-7-7.9-19.6-7.9-14.3 0-22.7 9.2-8.3 9.2-8.3 24.6zm150.5 48.4-2 19.7h-28.9v-190.5h31.2v82.4q6.1-10.5 18-16.5 11.9-6 26.2-6 26.6 0 42.4 18.8 15.7 18.8 15.7 49.3 0 29.4-16.5 47.6-16.5 18.2-43.6 18.2-14.3 0-25.6-6.1-11.3-6.1-16.9-16.9zm10.2-71.9q9.7-10.8 25.9-10.8 16.1 0 25.6 10.8 9.5 10.8 9.5 27.9 0 17.2-9.3 27.8-9.3 10.6-25.7 10.6-16.1 0-25.9-10.6-9.7-10.6-9.7-27.8 0-17.2 9.7-27.9z"/>
</svg>