<svg width="512" height="512" viewBox="0 0 512 512" xmlns="http://www.w3.org/2000/svg">
    <g id="svgGroup" stroke-linecap="round" fill-rule="evenodd">
        <rect class="background_back" width="512" height="512" rx="512" ry="512" />
        <path class="background" d="M 256.00,24.50 C 272.97,24.50 297.08,40.80 312.55,44.95 C 328.02,49.09 357.05,47.03 371.75,55.52 C 386.45,64.00 399.18,90.17 410.50,101.50 C 421.83,112.82 448.00,125.55 456.48,140.25 C 464.97,154.95 462.91,183.98 467.05,199.45 C 471.20,214.92 487.50,239.03 487.50,256.00 C 487.50,272.97 471.20,297.08 467.05,312.55 C 462.91,328.02 464.97,357.05 456.48,371.75 C 448.00,386.45 421.83,399.18 410.50,410.50 C 399.18,421.83 386.45,448.00 371.75,456.48 C 357.05,464.97 328.02,462.91 312.55,467.05 C 297.08,471.20 272.97,487.50 256.00,487.50 C 239.03,487.50 214.92,471.20 199.45,467.05 C 183.98,462.91 154.95,464.97 140.25,456.48 C 125.55,448.00 112.82,421.83 101.50,410.50 C 90.17,399.18 64.00,386.45 55.52,371.75 C 47.03,357.05 49.09,328.02 44.95,312.55 C 40.80,297.08 24.50,272.97 24.50,256.00 C 24.50,239.03 40.80,214.92 44.95,199.45 C 49.09,183.98 47.03,154.95 55.52,140.25 C 64.00,125.55 90.17,112.82 101.50,101.50 C 112.82,90.17 125.55,64.00 140.25,55.52 C 154.95,47.03 183.98,49.09 199.45,44.95 C 214.92,40.80 239.03,24.50 256.00,24.50 Z" />
        <path  class="text" transform="translate(0, -10)" d="m145 281.5v68.1h-31.2v-126.5h28.9l2.6 16.4q5.9-9.5 16.6-14.8 10.8-5.4 23.8-5.4 23.6 0 35.8 13.8 12.3 13.8 12.3 38.7v77.8h-31.2v-70.4q0-15.6-7-23.6-7-7.9-19.6-7.9-14.3 0-22.7 9.2-8.3 9.2-8.3 24.6zm150.5 48.4-2 19.7h-28.9v-190.5h31.2v82.4q6.1-10.5 18-16.5 11.9-6 26.2-6 26.6 0 42.4 18.8 15.7 18.8 15.7 49.3 0 29.4-16.5 47.6-16.5 18.2-43.6 18.2-14.3 0-25.6-6.1-11.3-6.1-16.9-16.9zm10.2-71.9q9.7-10.8 25.9-10.8 16.1 0 25.6 10.8 9.5 10.8 9.5 27.9 0 17.2-9.3 27.8-9.3 10.6-25.7 10.6-16.1 0-25.9-10.6-9.7-10.6-9.7-27.8 0-17.2 9.7-27.9z" />
    </g>
    <style>
        .background_back {
            fill: #ffe7b3;
        }
        .background {
            fill: #111110;
        }
        .text {
            fill: #ffe7b3;
        }

        @media (prefers-color-scheme: light) {
            .background_back {
                fill: #21201c;
            }
            .background {
                fill: #fefdfb;
            }
            .text {
                fill: #21201c;
            }
        }
    </style>
</svg>