<svg width="512" height="512" viewBox="0 0 512 512" xmlns="http://www.w3.org/2000/svg">
    <g id="svgGroup" stroke-linecap="round" fill-rule="evenodd">
        <rect class="background_back" width="512" height="512" rx="100" ry="100" />
        <rect class="background" x="32" y="32" width="448" height="448" rx="68" ry="68" />
        <path  class="text" d="m127.6 285.2v82.9h-46.6v-151.3h43.9l3 15.7a47.6 47.6 0 0 1 29.1-18.8 76.7 76.7 0 0 1 17.2-1.8 70.5 70.5 0 0 1 17.5 2 48.3 48.3 0 0 1 24.4 14.4q13.3 14.6 14.8 39.6a108.9 108.9 0 0 1 .2 6.6v93.5h-46.6v-82.3q0-14.2-7.3-22.8a23.6 23.6 0 0 0-17.3-8.6 32.3 32.3 0 0 0-2-.1 37.6 37.6 0 0 0-9.4 1.1 26.7 26.7 0 0 0-12.6 7.2 27.7 27.7 0 0 0-7.3 13.8 40.8 40.8 0 0 0-.9 8.7zm183 63.5-2.4 19.4h-43.9v-228.1h46.6v94.4a42.7 42.7 0 0 1 11-11 59.1 59.1 0 0 1 9.7-5.5 71.2 71.2 0 0 1 25.9-6.1 83.6 83.6 0 0 1 4.2-.1 72.1 72.1 0 0 1 23.5 3.6 60 60 0 0 1 27.1 18.9 77.9 77.9 0 0 1 15.6 31.7q2.9 11.6 3.1 25.2a144.3 144.3 0 0 1 0 2.8q0 35.1-20.3 56.6a67.5 67.5 0 0 1-45.7 21.2 91.9 91.9 0 0 1-6.9.3 67.4 67.4 0 0 1-18.5-2.5 59.3 59.3 0 0 1-10-3.9q-12.9-6.4-18.9-16.9zm10.9-84.5a35.2 35.2 0 0 0-9.7 19.8 49.1 49.1 0 0 0-.6 7.6 45.4 45.4 0 0 0 1.6 12.2 34.3 34.3 0 0 0 8.7 15.1q10.3 10.4 26.6 10.4a41.4 41.4 0 0 0 11.8-1.6 31.8 31.8 0 0 0 14.4-8.8 35.4 35.4 0 0 0 9.1-18.4 50 50 0 0 0 .8-9 47.5 47.5 0 0 0-1.5-12.1 34.8 34.8 0 0 0-8.4-15.2 32.7 32.7 0 0 0-20.2-10.1 45.9 45.9 0 0 0-6-.4 41.7 41.7 0 0 0-12.5 1.8 33.7 33.7 0 0 0-14.1 8.6z" />
    </g>
    <style>
        .background_back {
            fill: #ffe7b3;
        }
        .background {
            fill: #111110;
        }
        .text {
            fill: #ffe7b3;
            transform-origin: center;
        }

        @media (prefers-color-scheme: light) {
            .background_back {
                fill: #21201c;
            }
            .background {
                fill: #fefdfb;
            }
            .text {
                fill: #21201c;
            }
        }
    </style>
</svg>