<svg width="512" height="512" viewBox="0 0 512 512" xmlns="http://www.w3.org/2000/svg">
    <g id="svgGroup" stroke-linecap="round" fill-rule="evenodd">
        <rect class="background_back" width="512" height="512" rx="512" ry="512" />
         <path class="background" d="M 256.00,38.00 C 271.98,38.00 294.54,54.10 309.06,57.99 C 323.57,61.87 351.16,59.22 365.00,67.21 C 378.84,75.20 390.33,100.42 400.96,111.04 C 411.58,121.67 436.80,133.16 444.79,147.00 C 452.78,160.84 450.13,188.43 454.01,202.94 C 457.90,217.46 474.00,240.02 474.00,256.00 C 474.00,271.98 457.90,294.54 454.01,309.06 C 450.13,323.57 452.78,351.16 444.79,365.00 C 436.80,378.84 411.58,390.33 400.96,400.96 C 390.33,411.58 378.84,436.80 365.00,444.79 C 351.16,452.78 323.57,450.13 309.06,454.01 C 294.54,457.90 271.98,474.00 256.00,474.00 C 240.02,474.00 217.46,457.90 202.94,454.01 C 188.43,450.13 160.84,452.78 147.00,444.79 C 133.16,436.80 121.67,411.58 111.04,400.96 C 100.42,390.33 75.20,378.84 67.21,365.00 C 59.22,351.16 61.87,323.57 57.99,309.06 C 54.10,294.54 38.00,271.98 38.00,256.00 C 38.00,240.02 54.10,217.46 57.99,202.94 C 61.87,188.43 59.22,160.84 67.21,147.00 C 75.20,133.16 100.42,121.67 111.04,111.04 C 121.67,100.42 133.16,75.20 147.00,67.21 C 160.84,59.22 188.43,61.87 202.94,57.99 C 217.46,54.10 240.02,38.00 256.00,38.00 Z" />
        <path  class="text" transform="translate(0, -10)" d="m145 281.5v68.1h-31.2v-126.5h28.9l2.6 16.4q5.9-9.5 16.6-14.8 10.8-5.4 23.8-5.4 23.6 0 35.8 13.8 12.3 13.8 12.3 38.7v77.8h-31.2v-70.4q0-15.6-7-23.6-7-7.9-19.6-7.9-14.3 0-22.7 9.2-8.3 9.2-8.3 24.6zm150.5 48.4-2 19.7h-28.9v-190.5h31.2v82.4q6.1-10.5 18-16.5 11.9-6 26.2-6 26.6 0 42.4 18.8 15.7 18.8 15.7 49.3 0 29.4-16.5 47.6-16.5 18.2-43.6 18.2-14.3 0-25.6-6.1-11.3-6.1-16.9-16.9zm10.2-71.9q9.7-10.8 25.9-10.8 16.1 0 25.6 10.8 9.5 10.8 9.5 27.9 0 17.2-9.3 27.8-9.3 10.6-25.7 10.6-16.1 0-25.9-10.6-9.7-10.6-9.7-27.8 0-17.2 9.7-27.9z" />
    </g>
    <style>
        .background_back {
            fill: #ffe7b3;
        }
        .background {
            fill: #111110;
        }
        .text {
            fill: #ffe7b3;
        }

        @media (prefers-color-scheme: light) {
            .background_back {
                fill: #21201c;
            }
            .background {
                fill: #fefdfb;
            }
            .text {
                fill: #21201c;
            }
        }
    </style>
</svg>