<svg width="512" height="512" viewBox="0 0 512 512" xmlns="http://www.w3.org/2000/svg">
    <g id="svgGroup" stroke-linecap="round" fill-rule="evenodd">
        <rect class="background_back" width="512" height="512" rx="500" ry="500" />
        <rect class="background" x="32" y="32" width="448" height="448" rx="500" ry="500" />
        <path  class="text" d="m144.44 282.28v74.61h-41.94v-136.17h39.51l2.7 14.13a42.84 42.84 0 0 1 26.19-16.92 69.03 69.03 0 0 1 15.48-1.62 63.45 63.45 0 0 1 15.75 1.8 43.47 43.47 0 0 1 21.96 12.96q11.97 13.14 13.32 35.64a98.01 98.01 0 0 1 .18 5.94v84.15h-41.94v-74.07q0-12.78-6.57-20.52a21.24 21.24 0 0 0-15.57-7.74 29.07 29.07 0 0 0-1.8-.09 33.84 33.84 0 0 0-8.46.99 24.03 24.03 0 0 0-11.34 6.48 24.93 24.93 0 0 0-6.57 12.42 36.72 36.72 0 0 0-.81 7.83zm164.7 57.15-2.16 17.46h-39.51v-205.29h41.94v84.96a38.43 38.43 0 0 1 9.9-9.9 53.19 53.19 0 0 1 8.73-4.95 64.08 64.08 0 0 1 23.31-5.49 75.24 75.24 0 0 1 3.78-.09 64.89 64.89 0 0 1 21.15 3.24 54 54 0 0 1 24.39 17.01 70.11 70.11 0 0 1 14.04 28.53q2.61 10.44 2.79 22.68a129.87 129.87 0 0 1 0 2.52q0 31.59-18.27 50.94a60.75 60.75 0 0 1-41.13 19.08 82.71 82.71 0 0 1-6.21.27 60.66 60.66 0 0 1-16.65-2.25 53.37 53.37 0 0 1-9-3.51q-11.61-5.76-17.01-15.21zm9.81-76.05a31.68 31.68 0 0 0-8.73 17.82 44.19 44.19 0 0 0-.54 6.84 40.86 40.86 0 0 0 1.44 10.98 30.87 30.87 0 0 0 7.83 13.59q9.27 9.36 23.94 9.36a37.26 37.26 0 0 0 10.62-1.44 28.62 28.62 0 0 0 12.96-7.92 31.86 31.86 0 0 0 8.19-16.56 45 45 0 0 0 .72-8.1 42.75 42.75 0 0 0-1.35-10.89 31.32 31.32 0 0 0-7.56-13.68 29.43 29.43 0 0 0-18.18-9.09 41.31 41.31 0 0 0-5.4-.36 37.53 37.53 0 0 0-11.25 1.62 30.33 30.33 0 0 0-12.69 7.74z" />
    </g>
    <style>
        .background_back {
            fill: #ffe7b3;
        }
        .background {
            fill: #111110;
        }
        .text {
            fill: #ffe7b3;
        }

        @media (prefers-color-scheme: light) {
            .background_back {
                fill: #21201c;
            }
            .background {
                fill: #fefdfb;
            }
            .text {
                fill: #21201c;
            }
        }
    </style>
</svg>