<svg width="512" height="512" viewBox="0 0 512 512" xmlns="http://www.w3.org/2000/svg">
    <rect width="100%" height="100%" fill="#0a0a0a" />
    <path transform="translate(0, -15)" fill="#ffe7b3"
        d="m146.4 280.9v70.7h-39.8v-129.1h37.5l2.6 13.4a40.6 40.6 0 0 1 24.8-16 65.5 65.5 0 0 1 14.7-1.5 60.2 60.2 0 0 1 14.9 1.7 41.2 41.2 0 0 1 20.8 12.3q11.3 12.5 12.6 33.8a92.9 92.9 0 0 1 .2 5.6v79.8h-39.8v-70.2q0-12.1-6.2-19.5a20.1 20.1 0 0 0-14.8-7.3 27.6 27.6 0 0 0-1.7-.1 32.1 32.1 0 0 0-8 .9 22.8 22.8 0 0 0-10.8 6.1 23.6 23.6 0 0 0-6.2 11.8 34.8 34.8 0 0 0-.8 7.4zm156.2 54.2-2 16.6h-37.5v-194.6h39.8v80.6a36.4 36.4 0 0 1 9.4-9.4 50.4 50.4 0 0 1 8.3-4.7 60.8 60.8 0 0 1 22.1-5.2 71.3 71.3 0 0 1 3.6-.1 61.5 61.5 0 0 1 20.1 3.1 51.2 51.2 0 0 1 23.1 16.1 66.5 66.5 0 0 1 13.3 27.1q2.5 9.9 2.6 21.5a123.1 123.1 0 0 1 0 2.4q0 30-17.3 48.3a57.6 57.6 0 0 1-39 18.1 78.4 78.4 0 0 1-5.9.3 57.5 57.5 0 0 1-15.8-2.1 50.6 50.6 0 0 1-8.5-3.3q-11-5.5-16.1-14.4zm9.3-72.1a30 30 0 0 0-8.3 16.9 41.9 41.9 0 0 0-.5 6.5 38.7 38.7 0 0 0 1.4 10.4 29.3 29.3 0 0 0 7.4 12.9q8.8 8.9 22.7 8.9a35.3 35.3 0 0 0 10.1-1.4 27.1 27.1 0 0 0 12.3-7.5 30.2 30.2 0 0 0 7.8-15.7 42.7 42.7 0 0 0 .7-7.7 40.5 40.5 0 0 0-1.3-10.3 29.7 29.7 0 0 0-7.2-13 27.9 27.9 0 0 0-17.2-8.6 39.2 39.2 0 0 0-5.1-.3 35.6 35.6 0 0 0-10.7 1.5 28.8 28.8 0 0 0-12 7.3z" />
</svg>